<svg width="180" height="157" viewBox="0 0 180 157" fill="none" xmlns="http://www.w3.org/2000/svg">
<path d="M152.712 134.639L152.438 133.569L149.334 134.365L149.609 135.435L152.712 134.639Z" fill="#5793CE"/>
<path d="M151.11 136.172L150.836 135.102L147.732 135.897L148.006 136.967L151.11 136.172Z" fill="#5793CE"/>
<path d="M149.527 137.716L149.253 136.646L146.149 137.441L146.423 138.511L149.527 137.716Z" fill="#5793CE"/>
<path d="M147.964 139.269L147.689 138.199L144.585 138.995L144.86 140.065L147.964 139.269Z" fill="#5793CE"/>
<path d="M83.9819 38.2324L54.8369 55.3306C47.4278 53.0639 38.029 53.7751 31.8113 57.4064C24.2518 61.8414 24.2923 68.9709 31.9212 73.2729C33.7252 74.2743 35.6548 75.0308 37.6588 75.5222C39.1575 75.9049 40.683 76.1735 42.2223 76.326C48.2838 76.9042 54.756 75.8345 59.4178 73.0995C65.0686 69.7862 66.4683 65.0043 63.6342 60.9567L67.654 58.5976L67.5441 56.0476L71.7721 56.0187L71.668 53.6248H75.9018L75.7688 51.1905H80.0026L79.8985 48.7966H84.1323L84.0224 46.4085L88.5396 46.3738L89.9219 45.5643L91.4431 39.2906L83.9819 38.2324ZM42.9626 70.9485C41.8575 71.5175 40.6339 71.8182 39.3908 71.8263C38.1478 71.8343 36.9204 71.5494 35.808 70.9947C33.8241 69.8383 33.8125 68.0226 35.808 66.8662C36.9126 66.2963 38.1361 65.9946 39.3791 65.9855C40.6221 65.9765 41.8498 66.2604 42.9626 66.8142C44.9176 67.9417 44.9349 69.792 42.9626 70.9485Z" fill="#C4D9E8"/>
<path d="M99.928 146.384L60.5977 123.787C57.9544 122.26 58.2841 119.589 61.3438 117.825L99.5174 95.8063C102.577 94.0427 107.198 93.8519 109.842 95.3784L149.172 117.975C151.821 119.502 151.485 122.168 148.432 123.931L110.258 145.956C107.198 147.719 102.577 147.91 99.928 146.384Z" fill="#C4D9E8"/>
<path d="M146.014 95.153L139.218 91.2326L164.279 76.777C165.436 76.0947 165.436 74.9845 164.279 74.3022L138.68 59.5227C138.015 59.1863 137.28 59.0111 136.534 59.0111C135.789 59.0111 135.054 59.1863 134.388 59.5227L109.327 73.9784L102.531 70.0522L127.587 55.5965C132.52 52.7517 140.542 52.7517 145.476 55.5965L171.076 70.3702C176.003 73.2209 176.003 77.8467 171.076 80.6973L146.014 95.153Z" fill="#5793CE"/>
<path d="M156.98 96.8818C156.98 93.2448 154.771 89.0295 152.047 87.4567L106.649 61.2515C105.428 60.5461 104.335 60.494 103.45 60.9797L49.2439 92.4641L101.663 131.957L155.066 100.97C155.234 100.897 155.393 100.803 155.54 100.692C156.431 100.033 156.98 98.6916 156.98 96.8818Z" fill="#D4ECFF"/>
<path d="M101.663 131.957L155.066 100.97C155.234 100.896 155.394 100.803 155.54 100.692C156.431 100.021 156.98 98.6915 156.98 96.8816C156.942 95.0532 156.487 93.2576 155.65 91.6313L94.7746 126.77L101.663 131.957Z" fill="#173D7A"/>
<path d="M98.2449 131.836L52.8473 105.613C50.1231 104.04 47.9136 99.8308 47.9136 96.1879C47.9136 92.5567 50.1231 90.8856 52.8473 92.4584L98.2449 118.664C100.975 120.236 103.184 124.446 103.184 128.089C103.184 131.72 100.975 133.391 98.2449 131.836Z" fill="#5793CE"/>
<path d="M91.4489 122.977L85.9889 119.832C85.6933 119.616 85.4521 119.335 85.2844 119.009C85.1167 118.684 85.0272 118.324 85.023 117.958C85.023 117.236 85.4626 116.9 86.0062 117.213L91.4662 120.364C91.7658 120.578 92.0108 120.86 92.1816 121.186C92.3524 121.513 92.4441 121.875 92.4495 122.243C92.4321 122.96 91.9925 123.29 91.4489 122.977Z" fill="white"/>
<path d="M50.4643 30.7043L59.7879 36.0008L69.3082 30.4152L69.2793 27.9866L69.1983 28.0329L69.1925 27.8652L73.4263 27.8363L73.4032 25.4424L77.5502 25.4135L77.5271 23.0254L81.6799 22.9965L81.651 20.6027L85.8038 20.5738L85.7807 18.1857L90.2169 18.151L91.5935 17.3415L93.1204 11.0677L93.0915 8.63916L92.3569 10.9636L85.6419 10.0674L50.4643 30.7043Z" fill="#396CAA"/>
<path d="M59.7648 33.5721L69.2793 27.9865L69.1694 25.4365L73.4032 25.4076L73.2933 23.0137L77.5271 22.9848L77.4172 20.5967L81.651 20.5678L81.5469 18.174L85.7807 18.145L85.6708 15.757L90.1938 15.7223L91.5703 14.9128L93.0915 8.639L85.6129 7.63867L50.4354 28.2756L59.7648 33.5721Z" fill="#D4ECFF"/>
<path d="M66.1039 29.8538C64.9524 28.3089 63.4755 27.0357 61.7776 26.1243C60.3622 25.3354 58.865 24.7033 57.3124 24.2393L50.4354 28.2868L59.7648 33.5834L66.1039 29.8538Z" fill="#396CAA"/>
<path d="M92.837 9.69174L93.0915 8.63937L91.8364 8.47168L62.1131 25.9052L63.6805 26.7957L92.837 9.69174Z" fill="#5793CE"/>
<path d="M27.9188 38.3608L27.8147 34.9136L28.9194 37.2445L27.9188 38.3608Z" fill="#D3D0CF"/>
<path d="M33.6622 46.1308C41.2853 50.456 53.5876 50.3692 61.1471 45.9342C64.9414 43.7139 66.8153 40.8227 66.7864 37.9432L66.6823 34.283L66.0576 34.9769C65.1843 33.1728 63.5127 31.4786 61.0372 30.0735C53.4199 25.7426 41.1118 25.8293 33.5523 30.2643C25.9927 34.6993 26.0274 41.7999 33.6622 46.1308ZM44.6515 39.6721C46.6354 40.8285 46.6527 42.6499 44.6515 43.8006C43.5473 44.3719 42.3237 44.6743 41.0804 44.6834C39.8371 44.6924 38.6093 44.4078 37.4969 43.8526C35.513 42.6962 35.5014 40.8748 37.4969 39.7241C38.6033 39.15 39.83 38.8459 41.0766 38.8369C42.3232 38.8278 43.5542 39.114 44.6689 39.6721H44.6515Z" fill="#396CAA"/>
<path d="M33.5465 42.6789C41.1696 47.004 53.4777 46.9231 61.0373 42.4881C68.5968 38.0531 68.5563 30.9236 60.9216 26.6216C53.2869 22.3196 40.9961 22.3774 33.4366 26.8124C25.8771 31.2474 25.9407 38.3538 33.5465 42.6789ZM44.5359 36.2201C46.5197 37.3766 46.5313 39.198 44.5359 40.3544C43.4296 40.9231 42.205 41.2236 40.9611 41.2316C39.7173 41.2396 38.4889 40.955 37.3754 40.4007C35.3915 39.2443 35.38 37.4286 37.3754 36.2722C38.4851 35.6951 39.7159 35.3895 40.9667 35.3805C42.2175 35.3714 43.4526 35.6592 44.5706 36.2201H44.5359Z" fill="#F2F2F2"/>
<path d="M42.3958 44.5697C40.7432 44.8585 39.0415 44.607 37.5431 43.8527C36.1203 43.0432 35.7212 41.8636 36.3285 40.8344L32.8582 38.0993L29.2664 34.0518C26.4844 38.0993 27.9477 42.8986 33.6448 46.1367C36.2916 47.5655 39.1838 48.4836 42.1702 48.8428L42.3958 44.5697Z" fill="#5793CE"/>
<path d="M33.5465 42.6789C35.3505 43.6803 37.28 44.4368 39.2841 44.9282C40.7813 45.3049 42.3049 45.5678 43.8418 45.7146C49.9033 46.2928 56.3697 45.2231 61.0373 42.4881C68.5968 38.0531 68.5563 30.9236 60.9216 26.6216C53.2869 22.3196 40.9961 22.3774 33.4366 26.8124C25.8771 31.2474 25.9407 38.3538 33.5465 42.6789ZM44.5359 36.2201C46.5197 37.3766 46.5313 39.198 44.5359 40.3544C43.4296 40.9231 42.205 41.2236 40.9611 41.2316C39.7173 41.2396 38.4889 40.955 37.3754 40.4007C35.3915 39.2443 35.38 37.4286 37.3754 36.2722C38.4851 35.6951 39.7159 35.3895 40.9667 35.3805C42.2175 35.3714 43.4526 35.6592 44.5706 36.2201H44.5359Z" fill="#D4ECFF"/>
<path d="M29.9605 34.8151C30.3306 32.6063 31.9675 30.4437 34.8883 28.7322C41.6439 24.7887 52.5639 24.7135 59.3426 28.5645C62.7146 30.4784 64.415 32.9995 64.4555 35.5379C64.9356 32.6468 63.264 29.6863 59.4235 27.5063C52.6333 23.6554 41.696 23.7074 34.9693 27.6798C31.5857 29.6631 29.92 32.2478 29.9605 34.8151Z" fill="#396CAA"/>
<path d="M25.3739 66.2187C24.039 66.2317 22.7243 65.8926 21.5623 65.2357C18.8323 63.6861 17.3111 60.5752 17.2822 56.4698C17.2302 48.9529 22.4414 39.8111 28.902 36.018C32.4418 33.9421 35.8947 33.653 38.6247 35.2027C39.8024 35.8767 40.7788 36.8528 41.453 38.0302C42.4523 39.8491 42.9531 41.8997 42.9048 43.9744C42.9568 51.4566 37.7456 60.6331 31.285 64.4204C29.5094 65.5341 27.469 66.1548 25.3739 66.2187ZM34.8074 36.972C33.203 37.0375 31.6445 37.5262 30.2902 38.3887C24.5873 41.7366 19.9833 49.8376 20.0296 56.4525C20.0296 59.5286 21.0764 61.8011 22.9215 62.8477C24.7666 63.8942 27.2421 63.6109 29.8969 62.0497C35.6055 58.7076 40.2095 50.6008 40.1632 43.9917C40.2043 42.4 39.8338 40.8246 39.0874 39.4179C38.6648 38.6602 38.0435 38.0321 37.2903 37.6011C36.5372 37.1701 35.6807 36.9526 34.8131 36.972H34.8074Z" fill="#396CAA"/>
<path d="M38.3934 43.0492L43.8187 44.3791L44.5995 40.3315C43.4932 40.9002 42.2687 41.2007 41.0248 41.2087C39.7809 41.2167 38.5526 40.9321 37.439 40.3778L38.3934 43.0492Z" fill="#D4ECFF"/>
<path d="M33.5465 42.6788C35.3505 43.6802 37.28 44.4366 39.2841 44.9281C40.7813 45.3048 42.3049 45.5677 43.8418 45.7145C49.9033 46.2927 56.3697 45.223 61.0372 42.488L38.9371 41.9907L33.5465 42.6788Z" fill="#D4ECFF"/>
<path d="M41.7249 45.4659C40.0951 45.1779 38.4902 44.7642 36.9243 44.2285V47.6227C38.4647 48.1717 40.0523 48.5782 41.6671 48.837C46.7222 49.502 41.7249 45.4659 41.7249 45.4659Z" fill="#396CAA"/>
<path d="M38.2025 44.6393C37.1321 44.3324 36.0861 43.9458 35.0734 43.4828C32.1179 42.1066 35.86 47.2297 35.86 47.2297C35.86 47.2297 36.8664 47.6287 38.1736 48.0392L38.2025 44.6393Z" fill="#5793CE"/>
<path d="M93.6352 104.185L83.9645 110.418L79.2565 109.655L90.7548 104.098L93.6352 104.185Z" fill="#5793CE"/>
<path d="M81.946 135.658C81.946 135.658 79.1581 134.253 77.4519 136.346C75.7457 138.439 73.2933 143.371 73.2181 146.702C73.1429 150.032 75.8613 149.813 77.475 149.015C79.0887 148.217 83.8026 141.388 84.086 140.047C84.3694 138.705 83.7505 136.895 83.2994 136.542C82.8483 136.19 81.946 135.658 81.946 135.658Z" fill="#173D7A"/>
<path d="M82.5533 134.987L82.6805 137.878C82.6974 138.179 82.63 138.478 82.4859 138.743C82.3419 139.007 82.1268 139.227 81.865 139.376C81.2114 139.736 80.4516 139.855 79.7192 139.711C77.6196 139.376 77.4056 138.774 77.2841 135.889C77.1627 133.004 82.5533 134.987 82.5533 134.987Z" fill="#5793CE"/>
<path d="M71.749 130.101C71.749 130.101 68.9669 128.696 67.2549 130.789C65.5429 132.882 63.1021 137.815 63.0269 141.145C62.9517 144.476 65.6644 144.256 67.2781 143.458C68.8918 142.66 73.6403 135.831 73.8948 134.49C74.1493 133.148 73.5593 131.339 73.1024 130.98C72.6455 130.622 71.749 130.101 71.749 130.101Z" fill="#173D7A"/>
<path d="M72.3563 129.442L72.4893 132.333C72.5036 132.633 72.435 132.932 72.2912 133.196C72.1474 133.46 71.9338 133.68 71.6738 133.831C71.0173 134.189 70.2566 134.307 69.5222 134.166C67.4284 133.831 67.2087 133.229 67.0872 130.344C66.9657 127.459 72.3563 129.442 72.3563 129.442Z" fill="#5793CE"/>
<path d="M97.2096 76.4881C96.3825 63.079 82.6863 78.4598 82.6863 78.4598L73.3106 87.6479L64.8662 96.8995C64.0519 97.7934 63.4423 98.8539 63.0797 100.007C62.7171 101.161 62.6102 102.379 62.7666 103.578L66.1849 129.598C66.2656 130.218 66.5712 130.786 67.0435 131.196C67.5159 131.605 68.1221 131.827 68.7472 131.819C69.1714 131.812 69.5947 131.775 70.0138 131.709C70.8275 131.618 71.5747 131.217 72.0996 130.589C72.6244 129.961 72.8863 129.154 72.8306 128.338L72.2117 104.017L89.9393 93.3318C89.9393 93.3318 98.0309 89.8972 97.2096 76.4881Z" fill="#D4ECFF"/>
<path d="M78.9846 99.4549L76.4628 98.5239C76.405 98.5239 72.1712 102.618 72.2117 104.046L74.1088 104.659L78.8747 100.033L78.9846 99.4549Z" fill="#5793CE"/>
<path d="M93.6352 104.185C93.6352 104.185 104.168 98.1714 105.434 95.6504C105.926 94.6616 106.695 93.6324 103.618 92.1348L89.5633 102.15L90.1764 105.619L93.6352 104.185Z" fill="#5793CE"/>
<path d="M107.401 81.6633C106.522 68.26 92.8775 83.635 92.8775 83.635L83.5018 92.823L75.0574 102.075C74.2423 102.969 73.6326 104.031 73.271 105.185C72.9093 106.34 72.8044 107.56 72.9636 108.759L76.3761 134.779C76.458 135.398 76.7639 135.966 77.236 136.375C77.7081 136.784 78.3136 137.006 78.9383 137C79.3625 136.99 79.7855 136.953 80.205 136.89C81.0191 136.799 81.767 136.398 82.2927 135.77C82.8185 135.142 83.0817 134.336 83.0276 133.519L82.4029 109.198L100.136 98.5128C100.136 98.5128 108.205 93.9159 107.401 81.6633Z" fill="#D4ECFF"/>
<path d="M99.2976 38.5619C109.68 42.8639 109.471 48.97 109.471 48.97C109.471 48.97 107.441 71.4746 108.135 86.5027C108.425 92.7822 74.7508 93.2621 79.7944 76.5051C85.717 56.7414 83.496 40.7418 86.2665 38.3422C89.037 35.9425 96.5907 37.4459 99.2976 38.5619Z" fill="#5793CE"/>
<path d="M102.641 44.0033C102.097 46.1081 99.3323 47.2183 96.4693 46.4839C93.6063 45.7496 91.7207 43.4366 92.2644 41.3319C92.8081 39.2272 95.567 38.1112 98.4358 38.8513C101.305 39.5914 103.179 41.8928 102.641 44.0033Z" fill="#FFC2B0"/>
<path d="M98.2218 47.2066C97.5875 47.2042 96.9561 47.1226 96.342 46.9638C94.9229 46.6251 93.6486 45.8433 92.704 44.7318C92.279 44.2607 91.9735 43.6943 91.8135 43.0804C91.6534 42.4666 91.6434 41.8232 91.7843 41.2046C92.3916 38.8339 95.434 37.5618 98.5573 38.3655C99.9755 38.7101 101.25 39.4907 102.201 40.5975C102.624 41.0696 102.929 41.636 103.089 42.2496C103.249 42.8631 103.26 43.506 103.121 44.1247C102.635 46.0155 100.605 47.2066 98.2218 47.2066ZM96.6544 39.1114C94.7283 39.1114 93.1146 40.0077 92.7445 41.4243C92.6449 41.8928 92.6591 42.3782 92.7859 42.84C92.9127 43.3018 93.1484 43.7265 93.4732 44.0784C94.284 45.0321 95.3749 45.7058 96.5907 46.0039C99.1877 46.6689 101.681 45.7206 102.155 43.876C102.255 43.409 102.241 42.9248 102.115 42.464C101.99 42.0033 101.755 41.5793 101.432 41.2278C100.624 40.2798 99.5368 39.6119 98.3259 39.3196C97.7796 39.1814 97.2179 39.1134 96.6544 39.1172V39.1114Z" fill="white"/>
<path d="M95.1332 38.0937C95.1896 39.3298 95.1587 40.5684 95.0406 41.8002C94.9828 42.8294 98.6093 43.8008 99.5463 42.8641C100.483 41.9274 100.125 40.9502 100.333 37.4345C100.541 33.9189 95.1332 38.0937 95.1332 38.0937Z" fill="#FFC2B0"/>
<path d="M100.333 37.4346C100.333 37.4346 99.4422 40.6958 95.0407 41.9505L95.1101 38.9842L100.333 37.4346Z" fill="#EA9C92"/>
<path d="M103.115 29.1367C103.511 30.6669 103.444 32.28 102.923 33.7721C102.401 35.2642 101.449 36.5683 100.187 37.5194C98.9239 38.4705 97.4075 39.026 95.8292 39.1156C94.2508 39.2051 92.6813 38.8248 91.3191 38.0226C89.957 37.2204 88.8633 36.0324 88.1765 34.6089C87.4897 33.1853 87.2406 31.5901 87.4607 30.025C87.6807 28.4599 88.3601 26.9952 89.4128 25.8161C90.4655 24.637 91.8443 23.7964 93.3749 23.4007C95.4273 22.8717 97.6058 23.1786 99.432 24.2541C101.258 25.3296 102.583 27.0857 103.115 29.1367Z" fill="#FFC2B0"/>
<path d="M97.2154 31.4326C97.2154 31.4326 92.8139 33.3176 89.7658 33.3407C86.7176 33.3639 87.3886 30.8081 87.3886 30.8081L96.4346 29.4897L97.2154 31.4326Z" fill="#EA9C92"/>
<path d="M88.8577 31.9297C88.8577 31.9297 92.6924 30.3049 96.0528 30.9814C96.8508 31.1368 97.5702 31.5639 98.0888 32.1899C98.2404 32.3998 98.4552 32.5559 98.7018 32.6351C99.2802 32.7681 100.275 30.3222 101.432 30.2355C102.589 30.1487 103.369 31.0045 102.415 32.5484C101.461 34.0922 101.785 35.7691 102.224 36.0177C102.664 36.2664 107.302 32.7045 103.207 24.6035C99.1125 16.5026 88.7189 20.8162 87.1052 22.4815C87.1052 22.4815 85.3989 23.9675 84.0166 22.6434C84.0166 22.6434 82.4665 34.2715 88.8577 31.9297Z" fill="#FFB319"/>
<path d="M103.647 65.4378V71.5207C103.646 71.8656 103.573 72.2065 103.434 72.5219C103.295 72.8374 103.092 73.1206 102.837 73.3537L90.3441 84.739L91.767 86.9073L108.263 74.9438C108.643 74.6678 108.961 74.3153 109.197 73.9091C109.433 73.5028 109.582 73.0517 109.633 72.5846L110.744 61.98L103.647 65.4378Z" fill="#FFC2B0"/>
<path d="M108.592 45.9634C108.592 45.9634 112.387 51.6589 113.798 66.6581C113.798 66.6581 107.32 68.7513 103.647 67.5659C99.9743 66.3805 108.592 45.9634 108.592 45.9634Z" fill="#5793CE"/>
<path d="M102.953 53.1968C102.953 53.1968 101.467 61.1358 101.38 64.8654C101.365 65.3673 101.51 65.861 101.792 66.2762C102.075 66.6914 102.481 67.0071 102.953 67.1783V53.1968Z" fill="#396CAA"/>
<path d="M99.714 92.6435L96.9551 92.2792L79.1292 81.9925C78.7779 81.8406 78.3961 81.7719 78.0138 81.792C77.6315 81.812 77.2591 81.9203 76.9256 82.1082L64.2994 89.3938L62.6278 89.1741V90.8336C62.6315 90.9559 62.6692 91.0748 62.7366 91.1769C62.804 91.279 62.8985 91.3604 63.0096 91.4118L83.2126 103.069C83.5661 103.229 83.9522 103.304 84.3399 103.288C84.7277 103.272 85.1062 103.165 85.4452 102.976L99.1993 95.0431C99.3491 94.9783 99.4787 94.8742 99.5744 94.7419C99.6701 94.6096 99.7283 94.454 99.7429 94.2914L99.714 92.6435Z" fill="#173D7A"/>
<path d="M86.3186 86.1557L85.0577 85.4214H71.1417L64.282 89.3822L62.6105 89.1625V90.822C62.6142 90.9443 62.6518 91.0632 62.7192 91.1653C62.7866 91.2674 62.8812 91.3488 62.9922 91.4003L83.1953 103.057C83.5524 103.238 83.9539 103.312 84.3521 103.271L86.3186 86.1557Z" fill="#396CAA"/>
<path d="M63.3392 89.2492L62.5989 89.1509V90.8109C62.6026 90.9332 62.6402 91.0521 62.7076 91.1543C62.7751 91.2564 62.8696 91.3378 62.9806 91.3893L63.3392 91.5917V89.2492Z" fill="#5793CE"/>
<path d="M83.3861 103.151C84.0103 103.355 84.6885 103.313 85.2833 103.035V100.207H83.3861V103.151Z" fill="#274F89"/>
<path d="M83.1837 101.398L62.9806 89.7353C62.4022 89.4057 62.4832 88.8333 63.1426 88.4516L76.9256 80.5126C77.2645 80.3237 77.6431 80.2169 78.0308 80.2009C78.4186 80.1848 78.8047 80.2599 79.1581 80.4201L99.3554 92.0829C99.9338 92.4125 99.8586 92.9849 99.1993 93.3666L85.4163 101.306C85.0773 101.494 84.6987 101.601 84.311 101.617C83.9233 101.633 83.5372 101.558 83.1837 101.398Z" fill="white"/>
<path d="M82.8425 99.6284L66.0692 89.9373C65.5949 89.6597 65.6528 89.1798 66.2023 88.8676L73.5709 84.7217C73.8527 84.5641 74.1676 84.4752 74.4902 84.4621C74.8128 84.4491 75.1339 84.5122 75.4275 84.6465L92.2008 94.3376C92.6751 94.6151 92.6172 95.0951 92.0677 95.4073L84.6933 99.5532C84.4126 99.7107 84.0986 99.7996 83.7769 99.8127C83.4552 99.8258 83.135 99.7626 82.8425 99.6284Z" fill="#D4ECFF"/>
<path d="M77.6775 80.1306L77.4692 81.5241C77.2916 82.7116 77.3229 83.9209 77.5618 85.0976L77.8105 86.3234C77.8795 86.6617 78.0479 86.9717 78.2941 87.2138C78.5404 87.4559 78.8533 87.619 79.1928 87.6822C79.3214 87.7061 79.4536 87.7031 79.581 87.6734C79.7083 87.6438 79.8282 87.5881 79.9331 87.5099C80.0379 87.4317 80.1254 87.3327 80.1901 87.219C80.2548 87.1054 80.2954 86.9796 80.3091 86.8496L80.6446 83.8717C80.6446 83.8717 81.408 84.8721 81.8013 84.8721C82.1947 84.8721 81.3849 81.8884 80.552 80.2C79.7192 78.5116 77.6775 80.1306 77.6775 80.1306Z" fill="#FFC2B0"/>
<path d="M84.5256 57.9849L82.3624 62.2753C81.8486 63.2892 81.5456 64.3966 81.4717 65.5307L80.5289 80.2003L77.6775 80.131L76.3877 63.6573C76.3469 63.1495 76.3703 62.6385 76.4571 62.1365L77.9377 53.7754L84.5256 57.9849Z" fill="#FFC2B0"/>
<path d="M82.5012 102.52L80.8065 100.305L62.9922 89.9955C62.6775 89.7697 62.4203 89.4731 62.2415 89.1295C62.0626 88.786 61.9671 88.4052 61.9627 88.018V73.4409L60.9389 72.1052L61.9048 71.527C62.0129 71.4664 62.136 71.4375 62.2597 71.4437C62.3835 71.4498 62.5031 71.4907 62.6047 71.5617L82.802 83.265C83.116 83.4914 83.3727 83.7882 83.5515 84.1316C83.7302 84.475 83.8261 84.8554 83.8315 85.2425V101.121C83.8519 101.283 83.8277 101.448 83.7615 101.598C83.6952 101.747 83.5895 101.876 83.4555 101.971L82.5012 102.52Z" fill="#173D7A"/>
<path d="M70.1816 94.1587L68.9149 93.4243L61.9742 81.3625V73.435L60.9505 72.0993L61.9164 71.5211C62.0245 71.4605 62.1475 71.4317 62.2713 71.4378C62.3951 71.444 62.5146 71.4848 62.6163 71.5558L82.802 83.2649C83.1344 83.4833 83.3974 83.7923 83.5597 84.1553L70.1816 94.1587Z" fill="#396CAA"/>
<path d="M61.4074 72.695L60.9505 72.1166L61.9164 71.5382C62.0245 71.4776 62.1475 71.4488 62.2713 71.4549C62.3951 71.461 62.5146 71.5019 62.6162 71.5729L62.9691 71.7811L61.4074 72.695Z" fill="#5793CE"/>
<path d="M82.9871 83.4033C83.4723 83.8431 83.7722 84.451 83.8257 85.1038L81.8534 86.2605L80.9106 84.6237L82.9871 83.4033Z" fill="#274F89"/>
<path d="M81.8419 83.8429L61.6503 72.1627C61.072 71.8331 60.6208 72.1627 60.615 72.9433V88.8214C60.6211 89.209 60.7179 89.5897 60.8976 89.9332C61.0774 90.2766 61.3352 90.5731 61.6503 90.7989L81.8361 102.479C82.4145 102.814 82.8714 102.479 82.8714 101.698V85.8262C82.8651 85.4385 82.7689 85.0575 82.5902 84.7133C82.4115 84.3692 82.1554 84.0712 81.8419 83.8429Z" fill="#5793CE"/>
<path d="M91.767 86.9076L91.4431 87.5783C91.0708 88.3498 90.4845 88.9981 89.7542 89.446L87.7472 90.6834C87.4422 90.876 87.0905 90.982 86.7299 90.9901C86.3692 90.9983 86.0131 90.9083 85.6997 90.7297L85.6361 90.6892C85.4888 90.5897 85.3654 90.4588 85.2748 90.3059C85.1842 90.153 85.1286 89.982 85.112 89.805C85.0954 89.6281 85.1182 89.4497 85.1788 89.2826C85.2395 89.1156 85.3364 88.964 85.4626 88.8389L87.5563 86.6821C87.5563 86.6821 86.3995 87.5841 86.0525 87.2198C85.8096 86.9539 87.2093 85.6586 88.2562 85.6182C89.0196 85.522 89.7419 85.2179 90.3442 84.7393L91.767 86.9076Z" fill="#FFC2B0"/>
<path d="M86.4516 38.3306C86.4516 38.3306 78.7706 46.6859 75.6705 54.3532C77.7742 57.591 80.9996 59.9383 84.728 60.945C91.1597 62.7953 86.4516 38.3306 86.4516 38.3306Z" fill="#5793CE"/>
<path d="M83.2878 60.4422L84.5313 48.4209L81.5989 59.6847C82.1471 59.969 82.711 60.2219 83.2878 60.4422Z" fill="#396CAA"/>
<path d="M92.2066 36.6424L90.1417 36.064C90.7129 36.9549 91.5539 37.6399 92.542 38.0189C93.9822 38.418 94.2078 37.1976 94.2078 37.1976L92.2066 36.6424Z" fill="white"/>
<path d="M53.0266 18.1739C51.8826 18.1739 50.7644 17.8348 49.8132 17.1994C48.8621 16.5641 48.1207 15.661 47.683 14.6044C47.2452 13.5478 47.1307 12.3852 47.3538 11.2636C47.577 10.1419 48.1279 9.11163 48.9368 8.30296C49.7456 7.4943 50.7762 6.94359 51.8982 6.72048C53.0202 6.49737 54.1831 6.61188 55.24 7.04953C56.2968 7.48717 57.2002 8.2283 57.8357 9.17919C58.4712 10.1301 58.8105 11.248 58.8105 12.3916C58.8105 13.9252 58.2011 15.3959 57.1164 16.4803C56.0317 17.5647 54.5606 18.1739 53.0266 18.1739ZM53.0266 7.86991C52.132 7.86991 51.2575 8.13511 50.5137 8.63196C49.7699 9.12881 49.1902 9.83501 48.8479 10.6613C48.5055 11.4875 48.416 12.3967 48.5905 13.2738C48.765 14.1509 49.1958 14.9566 49.8283 15.589C50.4609 16.2214 51.2668 16.652 52.1442 16.8265C53.0216 17.001 53.931 16.9114 54.7575 16.5692C55.5839 16.2269 56.2903 15.6474 56.7873 14.9038C57.2843 14.1602 57.5496 13.286 57.5496 12.3916C57.548 11.1929 57.071 10.0436 56.2231 9.19599C55.3752 8.34833 54.2257 7.87144 53.0266 7.86991Z" fill="#D4ECFF"/>
<path d="M169.913 59.8233C169.102 59.8233 168.309 59.5828 167.635 59.1324C166.96 58.6819 166.435 58.0416 166.124 57.2925C165.814 56.5434 165.733 55.7191 165.891 54.9238C166.049 54.1286 166.44 53.3981 167.013 52.8248C167.587 52.2514 168.317 51.861 169.113 51.7028C169.908 51.5446 170.733 51.6258 171.482 51.9361C172.232 52.2464 172.872 52.7718 173.323 53.446C173.773 54.1202 174.014 54.9128 174.014 55.7236C174.012 56.8105 173.58 57.8523 172.811 58.6208C172.042 59.3893 171 59.8217 169.913 59.8233ZM169.913 52.8846C169.351 52.8846 168.802 53.0511 168.335 53.363C167.868 53.675 167.504 54.1184 167.289 54.6372C167.074 55.156 167.018 55.7268 167.128 56.2775C167.237 56.8283 167.508 57.3341 167.905 57.7312C168.302 58.1282 168.808 58.3986 169.359 58.5082C169.91 58.6177 170.481 58.5615 171 58.3466C171.519 58.1317 171.962 57.7678 172.274 57.301C172.586 56.8341 172.753 56.2852 172.753 55.7236C172.753 54.9707 172.454 54.2485 171.921 53.7161C171.388 53.1837 170.666 52.8846 169.913 52.8846Z" fill="#5793CE"/>
<path d="M35.4899 133.871L32.702 128.21L38.3645 125.429L41.1465 131.09L35.4899 133.871ZM34.3909 128.788L36.0625 132.182L39.4576 130.511L37.7918 127.117L34.3909 128.788Z" fill="#5793CE"/>
<path d="M117.632 46.1658L114.85 40.5108L120.513 37.7295L123.295 43.3672L117.632 46.1658ZM116.539 41.0832L118.211 44.4774L121.606 42.789L119.934 39.3948L116.539 41.0832Z" fill="#5793CE"/>
<path d="M27.8861 99.3625L25.2855 100.641L26.5642 103.241L29.1648 101.963L27.8861 99.3625Z" fill="#5793CE"/>
<path d="M129.865 15.4677L114.399 6.53985C114.284 6.4582 114.15 6.40917 114.009 6.39798C113.868 6.38678 113.728 6.41382 113.601 6.47624L112.103 7.34358L113.156 7.73099V18.9775C113.163 19.4432 113.279 19.9006 113.495 20.3133C113.711 20.726 114.021 21.0824 114.399 21.354L129.183 29.8828V31.2243L130.716 30.3339C130.866 30.2198 130.983 30.0687 131.058 29.8953C131.132 29.722 131.159 29.5324 131.138 29.3451V17.8442C131.129 17.3757 131.008 16.9162 130.787 16.5031C130.566 16.09 130.25 15.7352 129.865 15.4677Z" fill="#EA9B0F"/>
<path d="M128.338 31.1609L112.872 22.2331C112.494 21.9615 112.184 21.6051 111.968 21.1924C111.752 20.7797 111.636 20.3223 111.629 19.8566V8.36146C111.629 7.44208 112.207 7.02576 112.872 7.41895L128.338 16.3468C128.714 16.6199 129.019 16.9772 129.231 17.3899C129.443 17.8026 129.555 18.2593 129.559 18.7233V30.2184C129.559 31.1378 129.027 31.5541 128.338 31.1609Z" fill="#FFB319"/>
<path d="M118.072 18.2725C118.072 18.9377 117.604 19.2095 117.031 18.8509C116.727 18.6531 116.474 18.3868 116.293 18.0733C116.111 17.7599 116.005 17.4081 115.984 17.0463C115.984 16.3754 116.453 16.1093 117.031 16.439C117.337 16.6403 117.591 16.9115 117.773 17.2303C117.954 17.5491 118.056 17.9063 118.072 18.2725Z" fill="white"/>
<path d="M121.236 20.0938C121.236 20.7589 120.767 21.0308 120.189 20.6722C119.886 20.4732 119.633 20.2056 119.453 19.8912C119.272 19.5767 119.167 19.2241 119.148 18.8618C119.148 18.1967 119.616 17.9248 120.189 18.2834C120.493 18.4818 120.747 18.7491 120.929 19.0636C121.11 19.3781 121.216 19.731 121.236 20.0938Z" fill="white"/>
<path d="M124.394 21.9215C124.394 22.5866 123.925 22.8585 123.353 22.4999C123.049 22.3021 122.796 22.0358 122.614 21.7223C122.432 21.4089 122.327 21.0571 122.306 20.6953C122.306 20.0302 122.774 19.7583 123.353 20.1169C123.655 20.3154 123.907 20.582 124.088 20.8954C124.269 21.2088 124.373 21.5603 124.394 21.9215Z" fill="white"/>
<path d="M22.9562 113.275L7.7851 104.52C7.67196 104.44 7.53908 104.391 7.40058 104.38C7.26208 104.369 7.12313 104.395 6.99849 104.457L5.52939 105.295L6.5647 105.671V116.721C6.57203 117.175 6.68635 117.621 6.89838 118.023C7.11042 118.425 7.4142 118.771 7.7851 119.034L22.2853 127.401V128.702L23.7717 127.84C23.9166 127.726 24.0302 127.577 24.102 127.407C24.1738 127.237 24.2015 127.052 24.1824 126.869V115.605C24.1771 115.147 24.0632 114.697 23.85 114.292C23.6369 113.887 23.3305 113.538 22.9562 113.275Z" fill="#5793CE"/>
<path d="M21.4582 128.673L6.28708 119.913C5.91618 119.65 5.6124 119.304 5.40036 118.902C5.18833 118.5 5.07401 118.054 5.06668 117.6V106.301C5.06668 105.405 5.61036 104.994 6.28708 105.382L21.4582 114.136C21.8261 114.402 22.1277 114.748 22.3394 115.15C22.5511 115.551 22.6672 115.996 22.6786 116.449V127.724C22.6786 128.65 22.1291 129.06 21.4582 128.673Z" fill="#D4ECFF"/>
<path d="M11.3884 116.027C11.3884 116.681 10.9315 116.947 10.3647 116.606C10.0664 116.413 9.81812 116.151 9.64017 115.844C9.46223 115.536 9.35969 115.191 9.34096 114.836C9.34096 114.182 9.79788 113.916 10.3647 114.257C10.662 114.452 10.9096 114.713 11.0874 115.02C11.2652 115.328 11.3683 115.673 11.3884 116.027Z" fill="white"/>
<path d="M14.4886 117.82C14.4886 118.468 14.0317 118.734 13.4649 118.399C13.1668 118.204 12.9187 117.941 12.7409 117.633C12.563 117.325 12.4603 116.978 12.4411 116.623C12.4411 115.969 12.898 115.709 13.4649 116.045C13.7636 116.239 14.0121 116.501 14.1901 116.809C14.368 117.118 14.4703 117.464 14.4886 117.82Z" fill="white"/>
<path d="M17.5888 119.607C17.5888 120.261 17.1318 120.527 16.565 120.185C16.2667 119.992 16.0184 119.731 15.8405 119.423C15.6626 119.116 15.56 118.77 15.5413 118.415C15.5413 117.762 15.9982 117.496 16.565 117.837C16.8633 118.03 17.1116 118.291 17.2896 118.599C17.4675 118.907 17.57 119.252 17.5888 119.607Z" fill="white"/>
</svg>
